- 
http://www.Speed.Cd 
       
http://www.Speed.Cd       the fast  and The Hottest Private Tracker on the net

(((--Registration will be open on june every weekend--)))

Please Seed back to make the speed Faster!!!

------------------nfo--------------------------
-                                                                                                     
       
     
     
       
       
     
     
                                         
                                         
                EXVID                    
                                         
         
                                         
         Filled the Archives             
                                         
         
                                         
                With:                    
                                         
         
                                         
                                    
     E240                           
                                    
     SP               (C) 2009      
                                         
     
     
     
                                                                                  
                                                                                   
           Das.Boot.1981.Theatrical.Cut.BDRip.XviD-EXViD                            
                                                                                   
                                                                                  
     
                                                                                               
EXViD aims to iNTERNAL those releases which have been lost in the archives.
EXViD aims to PRE non-internal releases which have poor sources and are likely skipped by others. 
http://www.imdb.com/title/tt0082096/
Subs: English, French
Date: 2011.07

Director: Wolfgang Petersen
Genre: Action | Drama | History
Plot: The claustrophobic world of a WWII German U-boat; boredom, filth, and sheer terror. 

Cast overview, first billed only:
Jrgen Prochnow 	Jrgen Prochnow 	... 	
Capt.-Lt. Henrich Lehmann-Willenbrock - Der Alte
Herbert Grnemeyer 	Herbert Grnemeyer 	... 	
Lt. Werner - Correspondent
Klaus Wennemann 	Klaus Wennemann 	... 	
Chief Engineer Fritz Grade - Der Leitende-Der LI
Hubertus Bengsch 	Hubertus Bengsch 	... 	
1st Lieutenant - Number One-1WO
Martin Semmelrogge 	Martin Semmelrogge 	... 	
2nd Lieutenant - 2WO
Bernd Tauber 	Bernd Tauber 	... 	
Kriechbaum - Chief Quartermaster-Navigator
Erwin Leder 	Erwin Leder 	... 	
Johann
Martin May 	Martin May 	... 	
Ullman
Heinz Hoenig 	Heinz Hoenig 	... 	
Hinrich (as Heinz Hnig)
Uwe Ochsenknecht 	Uwe Ochsenknecht 	... 	
Chief Bosun
Claude-Oliver Rudolph 	Claude-Oliver Rudolph 	... 	
Ario
Jan Fedder 	Jan Fedder 	... 	
Pilgrim
Ralf Richter 	Ralf Richter 	... 	
Frenssen (as Ralph Richter)
Joachim Bernhard 	Joachim Bernhard 	... 	
Preacher
Oliver Stritzel 	Oliver Stritzel 	... 	
Schwalle
Full cast and crew  

Stats:
Format                           : AVI
Format/Info                      : Audio Video Interleave
File size                        : 1.37 GiB
Duration                         : 2h 29mn
Overall bit rate                 : 1 311 Kbps
Writing application              : Nandub v1.0rc2
Writing library                  : Nandub build 1852/release

Video
ID                               : 0
Format                           : MPEG-4 Visual
Format profile                   : Advanced Simple@L5
Format settings, BVOP            : No
Format settings, QPel            : No
Format settings, GMC             : No warppoints
Format settings, Matrix          : Default (H.263)
Codec ID                         : XVID
Codec ID/Hint                    : XviD
Duration                         : 2h 29mn
Bit rate                         : 1 180 Kbps
Width                            : 624 pixels
Height                           : 336 pixels
Display aspect ratio             : 1.857
Frame rate                       : 23.976 fps
Color space                      : YUV
Chroma subsampling               : 4:2:0
Bit depth                        : 8 bits
Scan type                        : Progressive
Compression mode                 : Lossy
Bits/(Pixel*Frame)               : 0.235
Stream size                      : 1.23 GiB (90%)
Writing library                  : XviD 64

Audio
ID                               : 1
Format                           : MPEG Audio
Format version                   : Version 1
Format profile                   : Layer 3
Mode                             : Joint stereo
Mode extension                   : MS Stereo
Codec ID                         : 55
Codec ID/Hint                    : MP3
Duration                         : 2h 29mn
Bit rate mode                    : Variable
Bit rate                         : 119 Kbps
Nominal bit rate                 : 128 Kbps
Channel(s)                       : 2 channels
Sampling rate                    : 48.0 KHz
Compression mode                 : Lossy
Stream size                      : 127 MiB (9%)
Alignment                        : Aligned on interleaves
Interleave, duration             : 24 ms (0.58 video frame)
Interleave, preload duration     : 432 ms
Writing library                  : LAME3.98r
Encoding settings                : -m j -V 4 -q 3 -lowpass 17 --abr 128




Release notes:
This is the theatrical cut which was previously unreleased. Raw m2ts sample included for proof.

There was one english DUBBED release of the theatrical cut:
http://www.dvdtalk.com/dvdsavant/s3521boot.html
http://www.hometheaterforum.com/forum/thread/310124/sphe-press-release-das-boot-blu-ray
11/25/2000 Das.Boot.1981.DVDRiP.DivX-PoLIsO

There was one DVD with the theatrical cut, but no english subs:
http://www.ofdb.de/view.php?page=fassung&fid=901&vid=213682

States all DVD released have not had a subtitled theatrical cut included:
http://dvdcompare.net/comparisons/film.php?fid=675
http://www.dvdjournal.com/quickreviews/b/bootdas_uncut.q.shtml
http://en.wikipedia.org/wiki/Das_Boot

States this is first bluray release to contain the threatrical cut:
http://dvdcompare.net/comparisons/film.php?fid=18435





Looking for:
75TB+ Archives
                                                                                                    
Greets: CRBS EPiSODE FiCO FLS iLS KLASSiGER LiPSYNC MADE NODLABS RUNNER SPRiNTER
   

                                                                    ASCII DONE BY XX^NFO 2oo9